<?xml version="1.0" encoding="utf-8"?>
<!-- Generator: Adobe Illustrator 25.0.0, SVG Export Plug-In . SVG Version: 6.00 Build 0)  -->
<svg version="1.1" xmlns="http://www.w3.org/2000/svg" xmlns:xlink="http://www.w3.org/1999/xlink" x="0px" y="0px"
	 viewBox="0 0 1920 1080" style="enable-background:new 0 0 1920 1080;" xml:space="preserve">
<style type="text/css">
	.st0{display:none;}
	.st1{display:inline;fill:#534741;}
	.st2{font-family:'Montserrat-Light';}
	.st3{font-size:442.4338px;}
	.st4{letter-spacing:10;}
	.st5{display:inline;fill:#CCCCCC;}
	.st6{display:inline;fill:#1A1A1A;}
	.st7{display:inline;}
	.st8{font-size:65.209px;}
	.st9{letter-spacing:1;}
</style>
<g id="Capa_4" class="st0">
	<text transform="matrix(1 0 0 1 194.173 608.2588)" class="st1 st2 st3 st4">POMIE</text>
	<rect x="505.68" y="413.46" class="st5" width="948.15" height="73.35"/>
</g>
<g id="Capa_6" class="st0">
	<rect x="22.2" y="21.82" class="st6" width="1879.34" height="1026.34"/>
</g>
<g id="Capa_4_copia">
	<g>
		<path d="M414.26,412.8c-22.12-18.43-52.65-27.65-91.58-27.65H211.63v309.7h22.56V593.53h88.49c38.93,0,69.46-9.21,91.58-27.65
			c22.12-18.43,33.18-43.87,33.18-76.32C447.44,456.82,436.38,431.24,414.26,412.8z M398.33,551.5
			c-17.41,14.46-42.63,21.68-75.66,21.68h-88.49V405.5h88.49c33.03,0,58.25,7.3,75.66,21.9c17.4,14.6,26.1,35.33,26.1,62.16
			C424.44,516.41,415.73,537.06,398.33,551.5z"/>
		<path d="M789.89,609.68c-12.1,20.79-28.61,37.1-49.55,48.89c-20.95,11.8-44.4,17.7-70.35,17.7c-25.96,0-49.48-5.9-70.57-17.7
			c-21.09-11.79-37.68-28.09-49.77-48.89c-6.61-11.37-11.4-23.47-14.4-36.29h-23.06c3.34,16.6,9.25,32.16,17.77,46.68
			c14.01,23.89,33.25,42.7,57.74,56.41c24.48,13.72,51.91,20.57,82.29,20.57c30.38,0,57.81-6.78,82.29-20.35
			c24.48-13.56,43.73-32.3,57.74-56.19c8.56-14.61,14.5-30.32,17.83-47.13h-23.56C801.29,586.22,796.49,598.32,789.89,609.68z"/>
		<path d="M549.64,470.32c12.09-20.79,28.68-37.09,49.77-48.89c21.08-11.79,44.61-17.7,70.57-17.7c25.95,0,49.4,5.9,70.35,17.7
			c20.94,11.8,37.46,28.09,49.55,48.89c5.47,9.41,9.69,19.33,12.69,29.73h23.81c-3.49-14.35-8.93-27.88-16.37-40.57
			c-14.01-23.89-33.26-42.62-57.74-56.19c-24.49-13.56-51.92-20.35-82.29-20.35c-30.38,0-57.81,6.86-82.29,20.57
			c-24.49,13.72-43.73,32.52-57.74,56.41c-7.39,12.59-12.81,25.98-16.3,40.13h23.29C539.95,489.64,544.17,479.73,549.64,470.32z"/>
		<polygon points="942.08,430.72 982.39,500.05 1005.46,500.05 938.99,385.15 919.96,385.15 919.96,500.05 942.08,500.05 		"/>
		<polygon points="1212.41,429.83 1212.53,500.05 1234.69,500.05 1234.53,385.15 1215.95,385.15 1149.47,500.05 1171.75,500.05 		
			"/>
		<polygon points="1212.85,694.85 1234.97,694.85 1234.8,573.4 1212.65,573.4 		"/>
		<rect x="919.96" y="573.4" width="22.12" height="121.46"/>
		<polygon points="1077.47,624.5 1047.9,573.4 1025.03,573.4 1071.71,653.71 1082.78,653.71 1129.28,573.4 1107.04,573.4 		"/>
		<rect x="1353.54" y="385.15" width="22.56" height="114.9"/>
		<rect x="1353.54" y="573.4" width="22.56" height="121.46"/>
		<polygon points="1517.24,674.5 1517.24,547.52 1682.27,547.52 1682.27,527.61 1517.24,527.61 1517.24,405.5 1701.74,405.5 
			1701.74,385.15 1494.68,385.15 1494.68,694.85 1708.37,694.85 1708.37,674.5 		"/>
	</g>
</g>
<g id="Capa_5" class="st0">
	<text transform="matrix(1 0 0 1 523.1726 559.2039)" class="st7 st2 st8 st9">web developer &amp; designer</text>
</g>
<g id="Capa_5_copia">
	<g>
		<path d="M578.73,525.17l-12.91,34.04h-3.06l-11.48-29.54l-11.54,29.54h-3l-12.91-34.04h3.13l11.35,30.39l11.61-30.39h2.8
			l11.54,30.32l11.48-30.32H578.73z"/>
		<path d="M615.64,542.97h-29.28c0.09,2.65,0.76,5.01,2.02,7.08c1.26,2.07,2.97,3.66,5.12,4.79c2.15,1.13,4.58,1.7,7.27,1.7
			c2.22,0,4.27-0.4,6.16-1.21c1.89-0.8,3.47-1.99,4.73-3.55l1.89,2.15c-1.48,1.78-3.34,3.15-5.58,4.11
			c-2.24,0.96-4.66,1.43-7.27,1.43c-3.39,0-6.41-0.74-9.06-2.22c-2.65-1.48-4.73-3.52-6.23-6.13c-1.5-2.61-2.25-5.59-2.25-8.93
			c0-3.3,0.71-6.27,2.12-8.9c1.41-2.63,3.36-4.68,5.84-6.16c2.48-1.48,5.26-2.22,8.35-2.22c3.09,0,5.86,0.73,8.31,2.18
			c2.46,1.46,4.39,3.49,5.8,6.1c1.41,2.61,2.12,5.57,2.12,8.87L615.64,542.97z M593.01,529.37c-1.91,1.07-3.45,2.57-4.6,4.5
			c-1.15,1.93-1.82,4.12-1.99,6.55h26.08c-0.13-2.43-0.78-4.61-1.96-6.52c-1.17-1.91-2.72-3.41-4.63-4.5
			c-1.91-1.09-4.07-1.63-6.46-1.63C597.08,527.77,594.92,528.31,593.01,529.37z"/>
		<path d="M653.07,527.09c2.56,1.46,4.57,3.5,6.03,6.13c1.46,2.63,2.18,5.62,2.18,8.97s-0.73,6.33-2.18,8.93
			c-1.46,2.61-3.47,4.65-6.03,6.13c-2.57,1.48-5.43,2.22-8.61,2.22c-3.04,0-5.79-0.73-8.25-2.18c-2.46-1.46-4.36-3.49-5.71-6.1v8.02
			h-3.13v-48.39h3.26v22.11c1.35-2.52,3.24-4.49,5.67-5.9c2.43-1.41,5.15-2.12,8.15-2.12C647.63,524.9,650.5,525.63,653.07,527.09z
			 M651.31,554.7c2.09-1.22,3.73-2.91,4.92-5.09c1.2-2.17,1.79-4.65,1.79-7.43s-0.6-5.26-1.79-7.43c-1.2-2.17-2.84-3.87-4.92-5.09
			c-2.09-1.22-4.43-1.83-7.04-1.83s-4.95,0.61-7.01,1.83c-2.07,1.22-3.7,2.91-4.89,5.09c-1.2,2.17-1.79,4.65-1.79,7.43
			s0.6,5.26,1.79,7.43c1.2,2.17,2.83,3.87,4.89,5.09c2.06,1.22,4.4,1.83,7.01,1.83S649.22,555.92,651.31,554.7z"/>
		<path d="M721.54,510.82v48.39h-3.2v-8.02c-1.35,2.65-3.24,4.69-5.67,6.13c-2.44,1.43-5.2,2.15-8.28,2.15
			c-3.17,0-6.04-0.74-8.61-2.22c-2.57-1.48-4.58-3.52-6.03-6.13c-1.46-2.61-2.18-5.59-2.18-8.93s0.73-6.34,2.18-8.97
			c1.46-2.63,3.47-4.67,6.03-6.13c2.56-1.46,5.43-2.18,8.61-2.18c3.04,0,5.77,0.72,8.18,2.15c2.41,1.43,4.31,3.43,5.71,6v-22.24
			H721.54z M711.59,554.7c2.06-1.22,3.69-2.91,4.89-5.09c1.2-2.17,1.79-4.65,1.79-7.43s-0.6-5.26-1.79-7.43
			c-1.2-2.17-2.83-3.87-4.89-5.09c-2.07-1.22-4.4-1.83-7.01-1.83s-4.95,0.61-7.01,1.83c-2.06,1.22-3.7,2.91-4.89,5.09
			c-1.2,2.17-1.79,4.65-1.79,7.43s0.6,5.26,1.79,7.43c1.2,2.17,2.83,3.87,4.89,5.09c2.06,1.22,4.4,1.83,7.01,1.83
			S709.53,555.92,711.59,554.7z"/>
		<path d="M765.62,542.97h-29.28c0.09,2.65,0.76,5.01,2.02,7.08c1.26,2.07,2.97,3.66,5.12,4.79c2.15,1.13,4.58,1.7,7.27,1.7
			c2.22,0,4.27-0.4,6.16-1.21c1.89-0.8,3.47-1.99,4.73-3.55l1.89,2.15c-1.48,1.78-3.34,3.15-5.58,4.11
			c-2.24,0.96-4.66,1.43-7.27,1.43c-3.39,0-6.41-0.74-9.06-2.22c-2.65-1.48-4.73-3.52-6.23-6.13c-1.5-2.61-2.25-5.59-2.25-8.93
			c0-3.3,0.71-6.27,2.12-8.9c1.41-2.63,3.36-4.68,5.84-6.16c2.48-1.48,5.26-2.22,8.35-2.22c3.09,0,5.86,0.73,8.31,2.18
			c2.46,1.46,4.39,3.49,5.8,6.1c1.41,2.61,2.12,5.57,2.12,8.87L765.62,542.97z M742.99,529.37c-1.91,1.07-3.45,2.57-4.6,4.5
			c-1.15,1.93-1.82,4.12-1.99,6.55h26.08c-0.13-2.43-0.78-4.61-1.96-6.52c-1.17-1.91-2.72-3.41-4.63-4.5
			c-1.91-1.09-4.07-1.63-6.46-1.63C747.05,527.77,744.9,528.31,742.99,529.37z"/>
		<path d="M804.02,525.17l-15.39,34.04h-3.33l-15.32-34.04h3.46L787,555.62l13.69-30.45H804.02z"/>
		<path d="M840.48,542.97H811.2c0.09,2.65,0.76,5.01,2.02,7.08c1.26,2.07,2.97,3.66,5.12,4.79c2.15,1.13,4.58,1.7,7.27,1.7
			c2.22,0,4.27-0.4,6.16-1.21c1.89-0.8,3.47-1.99,4.73-3.55l1.89,2.15c-1.48,1.78-3.34,3.15-5.58,4.11
			c-2.24,0.96-4.66,1.43-7.27,1.43c-3.39,0-6.41-0.74-9.06-2.22c-2.65-1.48-4.73-3.52-6.23-6.13c-1.5-2.61-2.25-5.59-2.25-8.93
			c0-3.3,0.71-6.27,2.12-8.9c1.41-2.63,3.36-4.68,5.84-6.16c2.48-1.48,5.26-2.22,8.35-2.22c3.09,0,5.86,0.73,8.31,2.18
			c2.46,1.46,4.39,3.49,5.8,6.1c1.41,2.61,2.12,5.57,2.12,8.87L840.48,542.97z M817.85,529.37c-1.91,1.07-3.45,2.57-4.6,4.5
			c-1.15,1.93-1.82,4.12-1.99,6.55h26.08c-0.13-2.43-0.78-4.61-1.96-6.52c-1.17-1.91-2.72-3.41-4.63-4.5
			c-1.91-1.09-4.07-1.63-6.46-1.63C821.91,527.77,819.76,528.31,817.85,529.37z"/>
		<path d="M852.21,510.82h3.26v48.39h-3.26V510.82z"/>
		<path d="M875.39,557.25c-2.59-1.48-4.62-3.53-6.1-6.16c-1.48-2.63-2.22-5.6-2.22-8.9s0.74-6.27,2.22-8.9
			c1.48-2.63,3.51-4.68,6.1-6.16c2.59-1.48,5.49-2.22,8.71-2.22c3.22,0,6.12,0.74,8.71,2.22c2.59,1.48,4.62,3.53,6.1,6.16
			c1.48,2.63,2.22,5.6,2.22,8.9s-0.74,6.27-2.22,8.9c-1.48,2.63-3.51,4.69-6.1,6.16c-2.59,1.48-5.49,2.22-8.71,2.22
			C880.88,559.46,877.98,558.73,875.39,557.25z M891.11,554.7c2.06-1.22,3.7-2.91,4.89-5.09c1.2-2.17,1.79-4.65,1.79-7.43
			s-0.6-5.26-1.79-7.43c-1.2-2.17-2.83-3.87-4.89-5.09c-2.06-1.22-4.4-1.83-7.01-1.83s-4.95,0.61-7.01,1.83
			c-2.07,1.22-3.7,2.91-4.89,5.09c-1.2,2.17-1.79,4.65-1.79,7.43s0.6,5.26,1.79,7.43c1.2,2.17,2.83,3.87,4.89,5.09
			c2.06,1.22,4.4,1.83,7.01,1.83S889.04,555.92,891.11,554.7z"/>
		<path d="M938.48,527.12c2.56,1.48,4.58,3.52,6.03,6.13c1.46,2.61,2.18,5.59,2.18,8.93s-0.73,6.34-2.18,8.97
			c-1.46,2.63-3.47,4.67-6.03,6.13c-2.57,1.46-5.43,2.18-8.61,2.18c-3,0-5.72-0.71-8.15-2.12c-2.43-1.41-4.33-3.38-5.67-5.9v20.41
			h-3.26v-46.69h3.13v8.02c1.35-2.61,3.25-4.64,5.71-6.1c2.46-1.46,5.21-2.18,8.25-2.18C933.05,524.9,935.92,525.64,938.48,527.12z
			 M936.72,554.7c2.09-1.22,3.73-2.91,4.92-5.09c1.19-2.17,1.79-4.65,1.79-7.43s-0.6-5.26-1.79-7.43c-1.2-2.17-2.84-3.87-4.92-5.09
			c-2.09-1.22-4.43-1.83-7.04-1.83c-2.61,0-4.95,0.61-7.01,1.83c-2.07,1.22-3.7,2.91-4.89,5.09c-1.2,2.17-1.79,4.65-1.79,7.43
			s0.6,5.26,1.79,7.43c1.19,2.17,2.82,3.87,4.89,5.09c2.06,1.22,4.4,1.83,7.01,1.83C932.29,556.53,934.63,555.92,936.72,554.7z"/>
		<path d="M987.13,542.97h-29.28c0.09,2.65,0.76,5.01,2.02,7.08c1.26,2.07,2.97,3.66,5.12,4.79c2.15,1.13,4.57,1.7,7.27,1.7
			c2.22,0,4.27-0.4,6.16-1.21c1.89-0.8,3.47-1.99,4.73-3.55l1.89,2.15c-1.48,1.78-3.34,3.15-5.58,4.11
			c-2.24,0.96-4.66,1.43-7.27,1.43c-3.39,0-6.41-0.74-9.06-2.22c-2.65-1.48-4.73-3.52-6.23-6.13c-1.5-2.61-2.25-5.59-2.25-8.93
			c0-3.3,0.71-6.27,2.12-8.9c1.41-2.63,3.36-4.68,5.84-6.16c2.48-1.48,5.26-2.22,8.35-2.22s5.86,0.73,8.31,2.18
			c2.46,1.46,4.39,3.49,5.8,6.1c1.41,2.61,2.12,5.57,2.12,8.87L987.13,542.97z M964.5,529.37c-1.91,1.07-3.45,2.57-4.6,4.5
			c-1.15,1.93-1.82,4.12-1.99,6.55H984c-0.13-2.43-0.78-4.61-1.96-6.52c-1.17-1.91-2.72-3.41-4.63-4.5
			c-1.91-1.09-4.07-1.63-6.46-1.63S966.41,528.31,964.5,529.37z"/>
		<path d="M1006.88,526.89c2.22-1.33,4.91-1.99,8.09-1.99v3.2l-0.78-0.07c-3.78,0-6.74,1.18-8.87,3.55c-2.13,2.37-3.2,5.66-3.2,9.88
			v17.74h-3.26v-34.04h3.13v7.43C1003.04,530.12,1004.67,528.22,1006.88,526.89z"/>
		<path d="M1077.57,559.86l-6.59-6.91c-1.87,2.17-4.09,3.82-6.65,4.92c-2.57,1.11-5.41,1.66-8.54,1.66c-2.87,0-5.43-0.48-7.7-1.43
			s-4.02-2.3-5.28-4.04c-1.26-1.74-1.89-3.72-1.89-5.93c0-2.65,0.89-5.08,2.67-7.27c1.78-2.2,4.83-4.55,9.13-7.08l-0.06-0.13
			c-2.26-2.35-3.8-4.31-4.63-5.9c-0.83-1.59-1.24-3.29-1.24-5.12c0-2.83,0.98-5.09,2.93-6.78s4.59-2.54,7.89-2.54
			c3.09,0,5.53,0.77,7.34,2.31c1.8,1.54,2.71,3.66,2.71,6.36c0,2.26-0.77,4.29-2.32,6.1c-1.54,1.8-4.25,3.84-8.12,6.1l13.5,14.28
			c1.48-2.61,2.56-5.69,3.26-9.26l2.67,0.85c-0.87,4.22-2.17,7.72-3.91,10.5l6.78,7.17L1077.57,559.86z M1069.03,550.86
			l-14.41-15.19c-4,2.35-6.75,4.41-8.25,6.2c-1.5,1.78-2.25,3.78-2.25,6c0,2.65,1.1,4.8,3.29,6.46s5.03,2.48,8.51,2.48
			C1061.49,556.79,1065.85,554.81,1069.03,550.86z M1050.96,526.76c0.74,1.33,2.2,3.14,4.37,5.44c3.61-2.09,6.09-3.86,7.43-5.31
			c1.35-1.46,2.02-3.08,2.02-4.86c0-1.91-0.63-3.42-1.89-4.53c-1.26-1.11-3.02-1.66-5.28-1.66c-2.43,0-4.34,0.62-5.71,1.86
			c-1.37,1.24-2.05,2.88-2.05,4.92C1049.86,524.06,1050.23,525.44,1050.96,526.76z"/>
		<path d="M1137.3,510.82v48.39h-3.2v-8.02c-1.35,2.65-3.24,4.69-5.67,6.13c-2.44,1.43-5.2,2.15-8.28,2.15
			c-3.17,0-6.04-0.74-8.61-2.22s-4.58-3.52-6.03-6.13c-1.46-2.61-2.18-5.59-2.18-8.93s0.73-6.34,2.18-8.97
			c1.46-2.63,3.47-4.67,6.03-6.13c2.57-1.46,5.43-2.18,8.61-2.18c3.04,0,5.77,0.72,8.18,2.15c2.41,1.43,4.31,3.43,5.71,6v-22.24
			H1137.3z M1127.36,554.7c2.06-1.22,3.69-2.91,4.89-5.09c1.2-2.17,1.79-4.65,1.79-7.43s-0.6-5.26-1.79-7.43
			c-1.2-2.17-2.83-3.87-4.89-5.09c-2.07-1.22-4.4-1.83-7.01-1.83s-4.95,0.61-7.01,1.83c-2.07,1.22-3.7,2.91-4.89,5.09
			c-1.2,2.17-1.79,4.65-1.79,7.43s0.6,5.26,1.79,7.43c1.2,2.17,2.83,3.87,4.89,5.09c2.06,1.22,4.4,1.83,7.01,1.83
			S1125.29,555.92,1127.36,554.7z"/>
		<path d="M1181.38,542.97h-29.28c0.09,2.65,0.76,5.01,2.02,7.08c1.26,2.07,2.97,3.66,5.12,4.79c2.15,1.13,4.57,1.7,7.27,1.7
			c2.22,0,4.27-0.4,6.16-1.21c1.89-0.8,3.47-1.99,4.73-3.55l1.89,2.15c-1.48,1.78-3.34,3.15-5.58,4.11
			c-2.24,0.96-4.66,1.43-7.27,1.43c-3.39,0-6.41-0.74-9.06-2.22c-2.65-1.48-4.73-3.52-6.23-6.13c-1.5-2.61-2.25-5.59-2.25-8.93
			c0-3.3,0.71-6.27,2.12-8.9c1.41-2.63,3.36-4.68,5.84-6.16c2.48-1.48,5.26-2.22,8.35-2.22s5.86,0.73,8.31,2.18
			c2.46,1.46,4.39,3.49,5.8,6.1c1.41,2.61,2.12,5.57,2.12,8.87L1181.38,542.97z M1158.75,529.37c-1.91,1.07-3.45,2.57-4.6,4.5
			c-1.15,1.93-1.82,4.12-1.99,6.55h26.08c-0.13-2.43-0.78-4.61-1.96-6.52c-1.17-1.91-2.72-3.41-4.63-4.5
			c-1.91-1.09-4.07-1.63-6.46-1.63S1160.67,528.31,1158.75,529.37z"/>
		<path d="M1193.9,558.23c-2.48-0.83-4.41-1.87-5.8-3.13l1.5-2.61c1.39,1.17,3.18,2.15,5.38,2.93c2.19,0.78,4.49,1.17,6.88,1.17
			c3.43,0,5.97-0.56,7.6-1.7c1.63-1.13,2.45-2.7,2.45-4.7c0-1.43-0.45-2.56-1.34-3.39c-0.89-0.83-1.99-1.43-3.29-1.83
			s-3.11-0.8-5.41-1.24c-2.7-0.48-4.87-1-6.52-1.56c-1.65-0.56-3.06-1.48-4.24-2.74c-1.17-1.26-1.76-3-1.76-5.22
			c0-2.69,1.12-4.92,3.36-6.68c2.24-1.76,5.42-2.64,9.55-2.64c2.17,0,4.33,0.3,6.46,0.91c2.13,0.61,3.87,1.41,5.22,2.41l-1.5,2.61
			c-1.39-1-2.98-1.76-4.76-2.28c-1.78-0.52-3.61-0.78-5.48-0.78c-3.17,0-5.57,0.59-7.17,1.76c-1.61,1.17-2.41,2.72-2.41,4.63
			c0,1.52,0.46,2.71,1.37,3.55s2.03,1.48,3.36,1.89c1.33,0.41,3.18,0.86,5.58,1.34c2.65,0.48,4.79,0.99,6.42,1.53
			c1.63,0.54,3.01,1.42,4.14,2.64c1.13,1.22,1.7,2.89,1.7,5.02c0,2.83-1.17,5.09-3.52,6.78s-5.65,2.54-9.91,2.54
			C1198.99,559.46,1196.38,559.05,1193.9,558.23z"/>
		<path d="M1225.59,516.13c-0.52-0.5-0.78-1.12-0.78-1.86c0-0.74,0.26-1.37,0.78-1.89s1.15-0.78,1.89-0.78s1.37,0.25,1.89,0.75
			s0.78,1.12,0.78,1.86s-0.26,1.37-0.78,1.89s-1.15,0.78-1.89,0.78S1226.11,516.63,1225.59,516.13z M1225.85,525.17h3.26v34.04
			h-3.26V525.17z"/>
		<path d="M1275.08,525.17v30.39c0,5.65-1.37,9.82-4.11,12.52c-2.74,2.7-6.87,4.04-12.39,4.04c-3.13,0-6.09-0.48-8.87-1.43
			c-2.78-0.96-5.02-2.28-6.72-3.98l1.76-2.48c1.7,1.57,3.74,2.78,6.13,3.65c2.39,0.87,4.93,1.3,7.63,1.3
			c4.52,0,7.87-1.08,10.04-3.23c2.17-2.15,3.26-5.49,3.26-10.01v-5.74c-1.39,2.48-3.33,4.39-5.8,5.74
			c-2.48,1.35-5.26,2.02-8.35,2.02c-3.17,0-6.05-0.71-8.64-2.12c-2.59-1.41-4.62-3.38-6.1-5.9c-1.48-2.52-2.22-5.37-2.22-8.54
			c0-3.17,0.74-6.02,2.22-8.54c1.48-2.52,3.51-4.48,6.1-5.87c2.59-1.39,5.47-2.09,8.64-2.09c3.13,0,5.96,0.7,8.48,2.09
			c2.52,1.39,4.46,3.35,5.8,5.87v-7.69H1275.08z M1265.11,553.3c2.13-1.15,3.79-2.76,4.99-4.83c1.19-2.06,1.79-4.42,1.79-7.08
			c0-2.65-0.6-5-1.79-7.04c-1.2-2.04-2.86-3.64-4.99-4.79c-2.13-1.15-4.52-1.73-7.17-1.73c-2.65,0-5.03,0.58-7.14,1.73
			c-2.11,1.15-3.76,2.75-4.96,4.79c-1.2,2.04-1.79,4.39-1.79,7.04c0,2.65,0.6,5.01,1.79,7.08c1.2,2.07,2.85,3.67,4.96,4.83
			c2.11,1.15,4.49,1.73,7.14,1.73C1260.59,555.03,1262.98,554.46,1265.11,553.3z"/>
		<path d="M1317.21,528.62c2.48,2.48,3.72,6.04,3.72,10.69v19.89h-3.26v-19.63c0-3.83-0.97-6.74-2.9-8.74c-1.93-2-4.64-3-8.12-3
			c-4,0-7.15,1.2-9.46,3.59c-2.3,2.39-3.46,5.61-3.46,9.65v18.13h-3.26v-34.04h3.13v7.37c1.17-2.39,2.92-4.26,5.25-5.61
			c2.32-1.35,5.07-2.02,8.25-2.02C1311.36,524.9,1314.73,526.14,1317.21,528.62z"/>
		<path d="M1364.75,542.97h-29.28c0.09,2.65,0.76,5.01,2.02,7.08c1.26,2.07,2.97,3.66,5.12,4.79c2.15,1.13,4.57,1.7,7.27,1.7
			c2.22,0,4.27-0.4,6.16-1.21c1.89-0.8,3.47-1.99,4.73-3.55l1.89,2.15c-1.48,1.78-3.34,3.15-5.58,4.11
			c-2.24,0.96-4.66,1.43-7.27,1.43c-3.39,0-6.41-0.74-9.06-2.22c-2.65-1.48-4.73-3.52-6.23-6.13c-1.5-2.61-2.25-5.59-2.25-8.93
			c0-3.3,0.71-6.27,2.12-8.9c1.41-2.63,3.36-4.68,5.84-6.16c2.48-1.48,5.26-2.22,8.35-2.22s5.86,0.73,8.31,2.18
			c2.46,1.46,4.39,3.49,5.8,6.1c1.41,2.61,2.12,5.57,2.12,8.87L1364.75,542.97z M1342.12,529.37c-1.91,1.07-3.45,2.57-4.6,4.5
			c-1.15,1.93-1.82,4.12-1.99,6.55h26.08c-0.13-2.43-0.78-4.61-1.96-6.52c-1.17-1.91-2.72-3.41-4.63-4.5
			c-1.91-1.09-4.07-1.63-6.46-1.63S1344.03,528.31,1342.12,529.37z"/>
		<path d="M1384.5,526.89c2.22-1.33,4.91-1.99,8.09-1.99v3.2l-0.78-0.07c-3.78,0-6.74,1.18-8.87,3.55c-2.13,2.37-3.2,5.66-3.2,9.88
			v17.74h-3.26v-34.04h3.13v7.43C1380.66,530.12,1382.29,528.22,1384.5,526.89z"/>
	</g>
</g>
</svg>
